<?xml version="1.0" encoding="UTF-8"?>
<svg version="1.1" xmlns="http://www.w3.org/2000/svg" width="126" height="118">
<path d="M0 0 C0.68835938 0.61488281 0.68835938 0.61488281 1.390625 1.2421875 C2.00421875 1.78101562 2.6178125 2.31984375 3.25 2.875 C3.85328125 3.40867187 4.4565625 3.94234375 5.078125 4.4921875 C7.22227187 6.27800279 7.22227187 6.27800279 11 8 C13.64 5.36 16.28 2.72 19 0 C20.32 0.66 21.64 1.32 23 2 C23 5.77910478 22.00296038 6.46106101 19.5 9.1875 C18.8503125 9.90292969 18.200625 10.61835938 17.53125 11.35546875 C17.0259375 11.89816406 16.520625 12.44085938 16 13 C17.32919292 15.96810069 18.77862143 18.00563789 21.125 20.25 C22.07375 21.1575 23.0225 22.065 24 23 C23.34 24.32 22.68 25.64 22 27 C18 27 18 27 16.078125 25.46875 C15.47484375 24.8190625 14.8715625 24.169375 14.25 23.5 C13.63640625 22.8503125 13.0228125 22.200625 12.390625 21.53125 C11.70226562 20.77328125 11.70226562 20.77328125 11 20 C7.28139821 21.53873177 6.64366459 22.47511388 4 26 C7.96 26 11.92 26 16 26 C17 31 17 31 17 33 C14.39590255 33.16781295 11.7917318 33.33429651 9.1875 33.5 C8.44951172 33.54769531 7.71152344 33.59539063 6.95117188 33.64453125 C3.96175412 33.83390613 0.99625426 34 -2 34 C-3.40912096 36.81824192 -3.11183553 39.17251282 -3.09765625 42.3203125 C-3.09443359 43.57714844 -3.09121094 44.83398438 -3.08789062 46.12890625 C-3.07951172 47.44761719 -3.07113281 48.76632813 -3.0625 50.125 C-3.05748489 51.46484211 -3.05292201 52.804686 -3.04882812 54.14453125 C-3.03701095 57.42970657 -3.01907501 60.71485881 -3 64 C3.27 64 9.54 64 16 64 C17 66 17 66 16 71 C9.73 71 3.46 71 -3 71 C-2.96042231 76.87883003 -2.96042231 76.87883003 -2.90991211 82.75756836 C-2.90741455 83.48596924 -2.90491699 84.21437012 -2.90234375 84.96484375 C-2.89710693 85.7137085 -2.89187012 86.46257324 -2.88647461 87.23413086 C-3 89 -3 89 -4 90 C-5.98 90 -7.96 90 -10 90 C-10 83.73 -10 77.46 -10 71 C-19.9 71 -29.8 71 -40 71 C-39.96042231 76.87883003 -39.96042231 76.87883003 -39.90991211 82.75756836 C-39.90741455 83.48596924 -39.90491699 84.21437012 -39.90234375 84.96484375 C-39.89448853 86.08814087 -39.89448853 86.08814087 -39.88647461 87.23413086 C-40 89 -40 89 -41 90 C-44 90.125 -44 90.125 -47 90 C-48 89 -48 89 -48.11352539 87.23413086 C-48.10828857 86.48526611 -48.10305176 85.73640137 -48.09765625 84.96484375 C-48.09443359 84.15595703 -48.09121094 83.34707031 -48.08789062 82.51367188 C-48.07951172 81.66353516 -48.07113281 80.81339844 -48.0625 79.9375 C-48.05798828 79.08349609 -48.05347656 78.22949219 -48.04882812 77.34960938 C-48.03700373 75.23304337 -48.01906769 73.11651315 -48 71 C-53.61 71 -59.22 71 -65 71 C-65.495 68.03 -65.495 68.03 -66 65 C-65 64 -65 64 -61.18359375 63.90234375 C-59.60152953 63.90808862 -58.01948969 63.92110407 -56.4375 63.9375 C-53.653125 63.958125 -50.86875 63.97875 -48 64 C-48 54.1 -48 44.2 -48 34 C-52.29 34 -56.58 34 -61 34 C-62.65 33.67 -64.3 33.34 -66 33 C-66 31.02 -66 29.04 -66 27 C-60.06 26.67 -54.12 26.34 -48 26 C-48 20.06 -48 14.12 -48 8 C-47.34 7.67 -46.68 7.34 -46 7 C-44.02 7.66 -42.04 8.32 -40 9 C-40 14.61 -40 20.22 -40 26 C-30.1 26 -20.2 26 -10 26 C-10.03957769 20.12116997 -10.03957769 20.12116997 -10.09008789 14.24243164 C-10.09258545 13.51403076 -10.09508301 12.78562988 -10.09765625 12.03515625 C-10.10289307 11.2862915 -10.10812988 10.53742676 -10.11352539 9.76586914 C-10 8 -10 8 -9 7 C-7.33382885 6.95936168 -5.66611905 6.957279 -4 7 C-2.9458482 10.16245541 -2.68724328 12.86948218 -2.4375 16.1875 C-2.35371094 17.27417969 -2.26992187 18.36085938 -2.18359375 19.48046875 C-2.12300781 20.31191406 -2.06242187 21.14335938 -2 22 C1.465 18.04 1.465 18.04 5 14 C4.05125 12.88625 3.1025 11.7725 2.125 10.625 C1.59132813 9.99851562 1.05765625 9.37203125 0.5078125 8.7265625 C-0.61432007 7.44163349 -1.79371975 6.20628025 -3 5 C-3 4.01 -3 3.02 -3 2 C-1.515 1.01 -1.515 1.01 0 0 Z M-40 34 C-40 43.9 -40 53.8 -40 64 C-35.235625 64.020625 -30.47125 64.04125 -25.5625 64.0625 C-24.0576001 64.071604 -22.5527002 64.08070801 -21.00219727 64.09008789 C-19.82713623 64.09258545 -18.6520752 64.09508301 -17.44140625 64.09765625 C-16.23170166 64.10289307 -15.02199707 64.10812988 -13.77563477 64.11352539 C-11.09187983 64.31775285 -11.09187983 64.31775285 -10 63 C-9.91224395 60.85441173 -9.89304781 58.70595579 -9.90234375 56.55859375 C-9.90717773 54.60083008 -9.90717773 54.60083008 -9.91210938 52.60351562 C-9.92046599 51.2148431 -9.92893095 49.82617123 -9.9375 48.4375 C-9.94251334 47.04492344 -9.94707653 45.65234519 -9.95117188 44.25976562 C-9.96300566 40.8398013 -9.9794912 37.41992156 -10 34 C-15.41892716 33.23625859 -20.65595713 32.84338704 -26.125 32.875 C-27.14013672 32.86919922 -27.14013672 32.86919922 -28.17578125 32.86328125 C-32.30839678 32.8712747 -35.86772022 33.3112867 -40 34 Z " fill="#AEA2E6" transform="translate(84,15)"/>
<path d="M0 0 C2.31 0.66 4.62 1.32 7 2 C7 7.61 7 13.22 7 19 C20.86 19.495 20.86 19.495 35 20 C34.01 20.99 33.02 21.98 32 23 C30.07641602 22.69799805 30.07641602 22.69799805 28 22 C24.98147057 21.78702419 21.96285679 21.81490298 18.9375 21.8125 C17.71450195 21.79413086 17.71450195 21.79413086 16.46679688 21.77539062 C15.68240234 21.77345703 14.89800781 21.77152344 14.08984375 21.76953125 C13.37691162 21.76542236 12.66397949 21.76131348 11.92944336 21.75708008 C9.67345953 21.89527954 9.67345953 21.89527954 7 24 C17.23 24.33 27.46 24.66 38 25 C38 26.98 38 28.96 38 31 C37.505 29.02 37.505 29.02 37 27 C27.1 27 17.2 27 7 27 C7 36.9 7 46.8 7 57 C16.57 56.67 26.14 56.34 36 56 C36.33 52.04 36.66 48.08 37 44 C37.33 44 37.66 44 38 44 C38.76979659 48.96091134 39.29300155 53.06308499 38 58 C37.34 58.66 36.68 59.32 36 60 C35.67 60.99 35.34 61.98 35 63 C35.99 63 36.98 63 38 63 C38 69.27 38 75.54 38 82 C39.65 82 41.3 82 43 82 C43 82.33 43 82.66 43 83 C41.02 83 39.04 83 37 83 C37 76.73 37 70.46 37 64 C27.1 64 17.2 64 7 64 C7.03957769 69.87883003 7.03957769 69.87883003 7.09008789 75.75756836 C7.09258545 76.48596924 7.09508301 77.21437012 7.09765625 77.96484375 C7.10551147 79.08814087 7.10551147 79.08814087 7.11352539 80.23413086 C7 82 7 82 6 83 C3 83.125 3 83.125 0 83 C-1 82 -1 82 -1.11352539 80.23413086 C-1.10828857 79.48526611 -1.10305176 78.73640137 -1.09765625 77.96484375 C-1.09443359 77.15595703 -1.09121094 76.34707031 -1.08789062 75.51367188 C-1.07951172 74.66353516 -1.07113281 73.81339844 -1.0625 72.9375 C-1.05798828 72.08349609 -1.05347656 71.22949219 -1.04882812 70.34960938 C-1.03700373 68.23304337 -1.01906769 66.11651315 -1 64 C-6.61 64 -12.22 64 -18 64 C-18.33 62.02 -18.66 60.04 -19 58 C-18 57 -18 57 -14.18359375 56.90234375 C-12.60152953 56.90808862 -11.01948969 56.92110407 -9.4375 56.9375 C-6.653125 56.958125 -3.86875 56.97875 -1 57 C-1 47.1 -1 37.2 -1 27 C-5.29 27 -9.58 27 -14 27 C-15.65 26.67 -17.3 26.34 -19 26 C-19 24.02 -19 22.04 -19 20 C-13.06 19.67 -7.12 19.34 -1 19 C-1.03957769 13.12116997 -1.03957769 13.12116997 -1.09008789 7.24243164 C-1.09258545 6.51403076 -1.09508301 5.78562988 -1.09765625 5.03515625 C-1.10551147 3.91185913 -1.10551147 3.91185913 -1.11352539 2.76586914 C-1 1 -1 1 0 0 Z " fill="#A79DDC" transform="translate(37,22)"/>
<path d="M0 0 C2.31 0.66 4.62 1.32 7 2 C7 7.61 7 13.22 7 19 C20.86 19.495 20.86 19.495 35 20 C34.01 20.99 33.02 21.98 32 23 C30.07641602 22.69799805 30.07641602 22.69799805 28 22 C24.98147057 21.78702419 21.96285679 21.81490298 18.9375 21.8125 C17.71450195 21.79413086 17.71450195 21.79413086 16.46679688 21.77539062 C15.68240234 21.77345703 14.89800781 21.77152344 14.08984375 21.76953125 C13.37691162 21.76542236 12.66397949 21.76131348 11.92944336 21.75708008 C9.67345953 21.89527954 9.67345953 21.89527954 7 24 C17.23 24.33 27.46 24.66 38 25 C38 26.98 38 28.96 38 31 C37.505 29.02 37.505 29.02 37 27 C27.1 27 17.2 27 7 27 C7 36.9 7 46.8 7 57 C16.57 56.67 26.14 56.34 36 56 C36.33 52.04 36.66 48.08 37 44 C37.33 44 37.66 44 38 44 C38.83970643 49.41144142 38.93775473 52.37347162 38 58 C27.11 58 16.22 58 5 58 C4.625 49.6875 4.625 49.6875 4.52197266 47.08081055 C4.4863623 46.39801025 4.45075195 45.71520996 4.4140625 45.01171875 C4.36693115 43.96697388 4.36693115 43.96697388 4.31884766 42.90112305 C4.07881747 40.67467261 4.07881747 40.67467261 2 38 C1.34 40.31 0.68 42.62 0 45 C-0.33 45 -0.66 45 -1 45 C-1 39.06 -1 33.12 -1 27 C-4.0628125 27.0309375 -4.0628125 27.0309375 -7.1875 27.0625 C-11.29196078 27.1039592 -15.00204108 26.95619733 -19 26 C-19 24.02 -19 22.04 -19 20 C-13.06 19.67 -7.12 19.34 -1 19 C-1.03957769 13.12116997 -1.03957769 13.12116997 -1.09008789 7.24243164 C-1.09258545 6.51403076 -1.09508301 5.78562988 -1.09765625 5.03515625 C-1.10551147 3.91185913 -1.10551147 3.91185913 -1.11352539 2.76586914 C-1 1 -1 1 0 0 Z " fill="#AEA2E7" transform="translate(37,22)"/>
<path d="M0 0 C1.88136811 3.68093762 2.19883057 6.80962791 1.4375 10.8125 C-0.44331073 14.79981875 -2.01636524 16.46982721 -5.75 18.8125 C-10.60274545 20.08535127 -13.97143169 19.82055605 -18.5625 17.8125 C-21.58682716 15.28194054 -23.22639056 13.51705502 -24 9.59375 C-24.21516322 5.55943966 -23.90073351 3.36067155 -21.75 -0.125 C-14.78635399 -6.69072338 -7.16325837 -6.11497665 0 0 Z " fill="#ACA0E3" transform="translate(106.5625,57.1875)"/>
<path d="M0 0 C0.45890625 0.40992188 0.9178125 0.81984375 1.390625 1.2421875 C2.31101562 2.05042969 2.31101562 2.05042969 3.25 2.875 C3.85328125 3.40867187 4.4565625 3.94234375 5.078125 4.4921875 C7.22227187 6.27800279 7.22227187 6.27800279 11 8 C13.64 5.36 16.28 2.72 19 0 C20.32 0.66 21.64 1.32 23 2 C23 5.77910478 22.00296038 6.46106101 19.5 9.1875 C18.8503125 9.90292969 18.200625 10.61835938 17.53125 11.35546875 C17.0259375 11.89816406 16.520625 12.44085938 16 13 C17.32919292 15.96810069 18.77862143 18.00563789 21.125 20.25 C22.07375 21.1575 23.0225 22.065 24 23 C23.34 24.32 22.68 25.64 22 27 C18 27 18 27 16.078125 25.46875 C15.17320313 24.49421875 15.17320313 24.49421875 14.25 23.5 C13.63640625 22.8503125 13.0228125 22.200625 12.390625 21.53125 C11.93171875 21.0259375 11.4728125 20.520625 11 20 C7.28139821 21.53873177 6.64366459 22.47511388 4 26 C7.96 26 11.92 26 16 26 C16 26.99 16 27.98 16 29 C9.4 28.67 2.8 28.34 -4 28 C-3.67 27.34 -3.34 26.68 -3 26 C-3.33 26 -3.66 26 -4 26 C-4 23.69 -4 21.38 -4 19 C-3.34 19.99 -2.68 20.98 -2 22 C0.31 19.36 2.62 16.72 5 14 C4.05125 12.88625 3.1025 11.7725 2.125 10.625 C1.59132813 9.99851562 1.05765625 9.37203125 0.5078125 8.7265625 C-0.61432007 7.44163349 -1.79371975 6.20628025 -3 5 C-3 4.01 -3 3.02 -3 2 C-2.01 1.34 -1.02 0.68 0 0 Z " fill="#ABA0E1" transform="translate(84,15)"/>
<path d="M0 0 C1.12588014 0.95729916 2.2506715 1.91587895 3.375 2.875 C4.00148438 3.40867188 4.62796875 3.94234375 5.2734375 4.4921875 C6.55836651 5.61432007 7.79371975 6.79371975 9 8 C11.64736593 7.79014782 12.77786261 7.21245709 14.703125 5.37109375 C15.21359375 4.73300781 15.7240625 4.09492187 16.25 3.4375 C16.77078125 2.79683594 17.2915625 2.15617187 17.828125 1.49609375 C18.21484375 1.00238281 18.6015625 0.50867187 19 0 C20.32 0.66 21.64 1.32 23 2 C23 6 23 6 21.46875 7.921875 C20.8190625 8.52515625 20.169375 9.1284375 19.5 9.75 C18.8503125 10.36359375 18.200625 10.9771875 17.53125 11.609375 C17.0259375 12.06828125 16.520625 12.5271875 16 13 C17.32919292 15.96810069 18.77862143 18.00563789 21.125 20.25 C22.07375 21.1575 23.0225 22.065 24 23 C23.34 24.32 22.68 25.64 22 27 C18 27 18 27 16.078125 25.46875 C15.17320313 24.49421875 15.17320313 24.49421875 14.25 23.5 C13.63640625 22.8503125 13.0228125 22.200625 12.390625 21.53125 C11.93171875 21.0259375 11.4728125 20.520625 11 20 C7.01824456 22.10148204 4.64960955 24.36905358 2 28 C0.68 27.34 -0.64 26.68 -2 26 C-2 22 -2 22 -0.46875 20.078125 C0.1809375 19.47484375 0.830625 18.8715625 1.5 18.25 C2.47453125 17.32960938 2.47453125 17.32960938 3.46875 16.390625 C3.9740625 15.93171875 4.479375 15.4728125 5 15 C3.70157671 12.02497187 2.50766252 10.38229011 -0.125 8.5 C-1.07375 7.675 -2.0225 6.85 -3 6 C-3 4.68 -3 3.36 -3 2 C-2.01 1.34 -1.02 0.68 0 0 Z " fill="#A99FD8" transform="translate(48,50)"/>
<path d="M0 0 C10.89 0 21.78 0 33 0 C33 1.98 33 3.96 33 6 C32.505 4.02 32.505 4.02 32 2 C22.1 2 12.2 2 2 2 C2 11.9 2 21.8 2 32 C11.57 31.67 21.14 31.34 31 31 C31.33 27.04 31.66 23.08 32 19 C32.33 19 32.66 19 33 19 C33.83970643 24.41144142 33.93775473 27.37347162 33 33 C22.11 33 11.22 33 0 33 C0 22.11 0 11.22 0 0 Z " fill="#978FBF" transform="translate(42,47)"/>
<path d="M0 0 C0.33 1.32 0.66 2.64 1 4 C7.27 4 13.54 4 20 4 C21 6 21 6 20 11 C13.73 11 7.46 11 1 11 C1 10.67 1 10.34 1 10 C8.92 9.505 8.92 9.505 17 9 C17 8.01 17 7.02 17 6 C15.55367187 6.28617187 15.55367187 6.28617187 14.078125 6.578125 C12.81484375 6.79984375 11.5515625 7.0215625 10.25 7.25 C8.99703125 7.48203125 7.7440625 7.7140625 6.453125 7.953125 C3 8 3 8 0.53125 6.1875 C-1 4 -1 4 -0.75 1.75 C-0.5025 1.1725 -0.255 0.595 0 0 Z " fill="#A9A1D5" transform="translate(80,75)"/>
<path d="M0 0 C2.97 0.495 2.97 0.495 6 1 C5.67 7.6 5.34 14.2 5 21 C3.68 21.33 2.36 21.66 1 22 C0.67 14.74 0.34 7.48 0 0 Z " fill="#ACA1E2" transform="translate(37,22)"/>
<path d="M0 0 C0 4.38968456 -2.12805101 5.76905739 -5 9 C-3.68 9.66 -2.36 10.32 -1 11 C-1.33 11.66 -1.66 12.32 -2 13 C1.96 13 5.92 13 10 13 C10 13.99 10 14.98 10 16 C3.4 15.67 -3.2 15.34 -10 15 C-9.67 14.34 -9.34 13.68 -9 13 C-9.33 13 -9.66 13 -10 13 C-10 10.69 -10 8.38 -10 6 C-9.01 7.485 -9.01 7.485 -8 9 C-7.50628906 8.43410156 -7.01257813 7.86820313 -6.50390625 7.28515625 C-5.54291016 6.18494141 -5.54291016 6.18494141 -4.5625 5.0625 C-3.92441406 4.33160156 -3.28632812 3.60070312 -2.62890625 2.84765625 C-1.77458541 1.87860647 -0.91348825 0.91348825 0 0 Z " fill="#9F97C6" transform="translate(90,28)"/>
<path d="M0 0 C2.31 0.66 4.62 1.32 7 2 C7.12375 2.86625 7.12375 2.86625 7.25 3.75 C8.20531013 6.6159304 9.78469173 7.9990764 12 10 C11.67 10.99 11.34 11.98 11 13 C8.78345373 11.97088923 6.89130823 10.91765775 4.9375 9.4375 C2.95818504 7.81311272 2.95818504 7.81311272 0 7 C-1.125 2.25 -1.125 2.25 0 0 Z " fill="#AEA1E9" transform="translate(55,60)"/>
<path d="M0 0 C1.2065625 0.0309375 1.2065625 0.0309375 2.4375 0.0625 C3.53408936 3.35226808 3.23703138 4.77553767 2.4375 8.0625 C1.1175 8.0625 -0.2025 8.0625 -1.5625 8.0625 C-1.8925 11.6925 -2.2225 15.3225 -2.5625 19.0625 C-2.8925 19.0625 -3.2225 19.0625 -3.5625 19.0625 C-3.58933987 16.08327407 -3.60926037 13.10428705 -3.625 10.125 C-3.63337891 9.27486328 -3.64175781 8.42472656 -3.65039062 7.54882812 C-3.65361328 6.73994141 -3.65683594 5.93105469 -3.66015625 5.09765625 C-3.66539307 4.3487915 -3.67062988 3.59992676 -3.67602539 2.82836914 C-3.49028527 -0.06078847 -2.89596652 0.07063333 0 0 Z " fill="#A79DD7" transform="translate(77.5625,21.9375)"/>
<path d="M0 0 C5.28 0 10.56 0 16 0 C16 0.33 16 0.66 16 1 C13.36 1 10.72 1 8 1 C8 2.65 8 4.3 8 6 C4.71023192 7.09658936 3.28696233 6.79953138 0 6 C0 4.02 0 2.04 0 0 Z " fill="#A89ED9" transform="translate(18,42)"/>
<path d="M0 0 C1.69141656 0.08963062 3.37959602 0.24577676 5.0625 0.4375 C6.44115234 0.59025391 6.44115234 0.59025391 7.84765625 0.74609375 C8.55792969 0.82988281 9.26820312 0.91367187 10 1 C10 1.66 10 2.32 10 3 C8.35 2.67 6.7 2.34 5 2 C5 2.99 5 3.98 5 5 C9.95 5 14.9 5 20 5 C20 5.33 20 5.66 20 6 C13.72500803 7.06808374 7.13103517 8.04367839 1 6 C-0.1875 3.4375 -0.1875 3.4375 -1 1 C-0.67 0.67 -0.34 0.34 0 0 Z M-3 2 C-2.01 2.495 -2.01 2.495 -1 3 C-1.33 3.66 -1.66 4.32 -2 5 C-2.33 4.01 -2.66 3.02 -3 2 Z " fill="#A89DDA" transform="translate(79,42)"/>
<path d="M0 0 C3.96 0 7.92 0 12 0 C12.90060607 4.50303033 13.00435617 7.72888814 12.6875 12.25 C12.56955078 14.11398438 12.56955078 14.11398438 12.44921875 16.015625 C12.30097656 17.00046875 12.15273438 17.9853125 12 19 C11.34 19.33 10.68 19.66 10 20 C10 14.06 10 8.12 10 2 C6.7 1.67 3.4 1.34 0 1 C0 0.67 0 0.34 0 0 Z " fill="#9890C2" transform="translate(26,47)"/>
<path d="M0 0 C0.66 0.33 1.32 0.66 2 1 C2.8814688 3.64440639 3.16174818 5.28060752 3.1875 8 C3.20167969 8.680625 3.21585938 9.36125 3.23046875 10.0625 C3 12 3 12 1 15 C0.34 15 -0.32 15 -1 15 C-1 13.02 -1 11.04 -1 9 C-1.66 8.67 -2.32 8.34 -3 8 C-2.01 5.36 -1.02 2.72 0 0 Z " fill="#AEA2E9" transform="translate(39,59)"/>
<path d="M0 0 C-3 2 -3 2 -6.875 1.3125 C-10.41248671 0.7717792 -10.76374642 0.8391465 -13.9375 3 C-16.31277951 6.45495202 -16.61094601 8.87602771 -17 13 C-17.66 13.66 -18.32 14.32 -19 15 C-19.62627475 7.014997 -19.62627475 7.014997 -17.1875 3.0625 C-11.35466774 -2.43702756 -7.42434163 -2.47478054 0 0 Z " fill="#A29BC8" transform="translate(102,54)"/>
<path d="M0 0 C1.32 0.66 2.64 1.32 4 2 C4 6.38968456 1.87194899 7.76905739 -1 11 C-1.66 10.67 -2.32 10.34 -3 10 C-2.505 9.54625 -2.01 9.0925 -1.5 8.625 C0.22609337 7.12364481 0.22609337 7.12364481 0 5 C-1.98 5.66 -3.96 6.32 -6 7 C-4.02 4.69 -2.04 2.38 0 0 Z " fill="#A39BCE" transform="translate(103,15)"/>
<path d="M0 0 C0.66 0.33 1.32 0.66 2 1 C2 7.27 2 13.54 2 20 C1.01 19.67 0.02 19.34 -1 19 C-0.67 12.73 -0.34 6.46 0 0 Z " fill="#958FC8" transform="translate(36,23)"/>
<path d="M0 0 C0.66 0 1.32 0 2 0 C2.33 6.27 2.66 12.54 3 19 C2.01 19 1.02 19 0 19 C0 12.73 0 6.46 0 0 Z " fill="#9382B8" transform="translate(42,24)"/>
<path d="M0 0 C3.62613199 0.56959153 5.25517741 1.92374534 7.75 4.5625 C8.36359375 5.20316406 8.9771875 5.84382813 9.609375 6.50390625 C10.06828125 6.99761719 10.5271875 7.49132813 11 8 C11.66 7.67 12.32 7.34 13 7 C13.33 6.01 13.66 5.02 14 4 C14.66 5.32 15.32 6.64 16 8 C15.01 8.99 14.02 9.98 13 11 C9.54691313 9.48729451 7.04375621 7.45279358 4.25 4.9375 C3.45078125 4.22464844 2.6515625 3.51179688 1.828125 2.77734375 C1.22484375 2.19082031 0.6215625 1.60429688 0 1 C0 0.67 0 0.34 0 0 Z " fill="#9D96CA" transform="translate(92,32)"/>
<path d="M0 0 C8.58 0 17.16 0 26 0 C25.01 0.99 24.02 1.98 23 3 C21.09667969 2.70727539 21.09667969 2.70727539 19 2 C17.48729395 1.85870882 15.97071872 1.75537183 14.453125 1.68359375 C13.60878906 1.64169922 12.76445313 1.59980469 11.89453125 1.55664062 C11.02183594 1.51732422 10.14914063 1.47800781 9.25 1.4375 C7.91775391 1.37272461 7.91775391 1.37272461 6.55859375 1.30664062 C4.37254037 1.20086385 2.18637911 1.09877454 0 1 C0 0.67 0 0.34 0 0 Z " fill="#A398D0" transform="translate(46,42)"/>
<path d="M0 0 C0.99 0.33 1.98 0.66 3 1 C2.67 2.65 2.34 4.3 2 6 C-4.27 6 -10.54 6 -17 6 C-17 5.67 -17 5.34 -17 5 C-9.08 4.505 -9.08 4.505 -1 4 C-0.67 2.68 -0.34 1.36 0 0 Z " fill="#AEA9DB" transform="translate(98,80)"/>
<path d="M0 0 C0.99 0.33 1.98 0.66 3 1 C1.66666667 3.66666667 0.33333333 6.33333333 -1 9 C-1.33 8.34 -1.66 7.68 -2 7 C-2.66 6.67 -3.32 6.34 -4 6 C-2.68 4.02 -1.36 2.04 0 0 Z " fill="#B3A8EB" transform="translate(101,19)"/>
<path d="M0 0 C0 3 0 3 -1 6 C-0.34 6.66 0.32 7.32 1 8 C0.67 8.66 0.34 9.32 0 10 C-1.32 9.34 -2.64 8.68 -4 8 C-4 4 -4 4 -2 1.75 C-1.01 0.88375 -1.01 0.88375 0 0 Z " fill="#A69ECA" transform="translate(50,68)"/>
<path d="M0 0 C0.99 0.99 1.98 1.98 3 3 C3.33 2.34 3.66 1.68 4 1 C4.66 2.65 5.32 4.3 6 6 C4.68 6 3.36 6 2 6 C2 5.34 2 4.68 2 4 C1.34 4 0.68 4 0 4 C0 2.68 0 1.36 0 0 Z " fill="#B7ACEB" transform="translate(75,69)"/>
<path d="M0 0 C0.66 0.66 1.32 1.32 2 2 C1.34 2 0.68 2 0 2 C0.33 3.98 0.66 5.96 1 8 C-1 6.6875 -1 6.6875 -3 5 C-3 4.01 -3 3.02 -3 2 C-2.01 1.34 -1.02 0.68 0 0 Z " fill="#A39DCE" transform="translate(84,15)"/>
</svg>
